<svg width="56" height="56" viewBox="0 0 56 56" fill="none" xmlns="http://www.w3.org/2000/svg">
<circle cx="28" cy="28" r="27.5" transform="matrix(-1 0 0 1 56 0)" stroke="white"/>
<path d="M33.2046 28L24.7126 19.273C24.6426 19.2027 24.5874 19.1192 24.5499 19.0273C24.5125 18.9355 24.4937 18.8372 24.4945 18.738C24.4953 18.6388 24.5158 18.5408 24.5547 18.4496C24.5937 18.3584 24.6503 18.2759 24.7214 18.2067C24.7925 18.1375 24.8766 18.0832 24.9688 18.0467C25.061 18.0103 25.1596 17.9925 25.2587 17.9944C25.3579 17.9963 25.4557 18.0178 25.5464 18.0577C25.6372 18.0977 25.7192 18.1552 25.7876 18.227L34.7876 27.477C34.9238 27.617 35 27.8047 35 28C35 28.1953 34.9238 28.383 34.7876 28.523L25.7876 37.773C25.7192 37.8448 25.6372 37.9023 25.5464 37.9423C25.4557 37.9822 25.3579 38.0037 25.2587 38.0056C25.1596 38.0075 25.061 37.9897 24.9688 37.9533C24.8766 37.9168 24.7925 37.8625 24.7214 37.7933C24.6503 37.7241 24.5937 37.6416 24.5547 37.5504C24.5158 37.4592 24.4953 37.3612 24.4945 37.262C24.4937 37.1628 24.5125 37.0645 24.5499 36.9727C24.5874 36.8808 24.6426 36.7973 24.7126 36.727L33.2046 28Z" fill="white"/>
</svg>
