<svg width="56" height="56" viewBox="0 0 56 56" fill="none" xmlns="http://www.w3.org/2000/svg">
<circle cx="28" cy="28" r="27.5" stroke="white"/>
<path d="M22.7954 28L31.2874 19.273C31.3574 19.2027 31.4126 19.1192 31.4501 19.0273C31.4875 18.9355 31.5063 18.8372 31.5055 18.738C31.5047 18.6388 31.4842 18.5408 31.4453 18.4496C31.4063 18.3584 31.3497 18.2759 31.2786 18.2067C31.2075 18.1375 31.1234 18.0832 31.0312 18.0467C30.939 18.0103 30.8404 17.9925 30.7413 17.9944C30.6421 17.9963 30.5443 18.0178 30.4536 18.0577C30.3628 18.0977 30.2808 18.1552 30.2124 18.227L21.2124 27.477C21.0762 27.617 21 27.8047 21 28C21 28.1953 21.0762 28.383 21.2124 28.523L30.2124 37.773C30.2808 37.8448 30.3628 37.9023 30.4536 37.9423C30.5443 37.9822 30.6421 38.0037 30.7413 38.0056C30.8404 38.0075 30.939 37.9897 31.0312 37.9533C31.1234 37.9168 31.2075 37.8625 31.2786 37.7933C31.3497 37.7241 31.4063 37.6416 31.4453 37.5504C31.4842 37.4592 31.5047 37.3612 31.5055 37.262C31.5063 37.1628 31.4875 37.0645 31.4501 36.9727C31.4126 36.8808 31.3574 36.7973 31.2874 36.727L22.7954 28Z" fill="white"/>
</svg>
